<?xml version="1.0" encoding="UTF-8" standalone="no"?>
<!DOCTYPE svg PUBLIC "-//W3C//DTD SVG 1.1//EN" "http://www.w3.org/Graphics/SVG/1.1/DTD/svg11.dtd">
<svg version="1.1" xmlns="http://www.w3.org/2000/svg" xmlns:xlink="http://www.w3.org/1999/xlink" preserveAspectRatio="xMidYMid meet" viewBox="0 0 569 384" width="569" height="384"><defs><path d="M388.15 266.57C402.26 274.74 415.99 269.32 429.33 250.32L555.32 57.3C569.71 34.31 569.85 18.49 555.74 9.84C541.63 1.2 527.38 7.81 513 29.68L387 222.69C373.65 243.78 374.03 258.41 388.15 266.57Z" id="h2y8gTzIh"></path><linearGradient id="gradienta19BXB1Gpw" gradientUnits="userSpaceOnUse" x1="388.95" y1="261.27" x2="551.65" y2="12.47"><stop style="stop-color: #ffe3fe;stop-opacity: 1" offset="0%"></stop><stop style="stop-color: #a88fd9;stop-opacity: 1" offset="100%"></stop></linearGradient><path d="M294.73 95.46C281.71 105.26 279.43 116.91 287.89 130.4L378.22 259.98C389.27 274.92 401.49 277.53 414.88 267.81C428.27 258.08 429.87 245.84 419.68 231.07L329.35 101.5C319.28 87.66 307.74 85.65 294.73 95.46Z" id="gbyPqX35o"></path><linearGradient id="gradientaHzjSRKU3" gradientUnits="userSpaceOnUse" x1="298.47" y1="96.93" x2="414.77" y2="264.18"><stop style="stop-color: #ffe3fe;stop-opacity: 1" offset="0%"></stop><stop style="stop-color: #a88fd9;stop-opacity: 1" offset="100%"></stop></linearGradient><path d="M217.82 380.73C233.56 384.98 245.43 376.21 253.41 354.41L325.43 135.45C333.41 109.53 329.47 94.21 313.61 89.49C297.74 84.77 285.68 94.82 277.42 119.66L205.4 338.62C197.93 362.44 202.07 376.47 217.82 380.73Z" id="e22Izax5ZK"></path><linearGradient id="gradienth1ovVJgYZG" gradientUnits="userSpaceOnUse" x1="217.23" y1="375.39" x2="310.33" y2="93.08"><stop style="stop-color: #ffe3fe;stop-opacity: 1" offset="0%"></stop><stop style="stop-color: #a88fd9;stop-opacity: 1" offset="100%"></stop></linearGradient><path d="M119.63 207.67C106.62 217.47 104.34 229.12 112.79 242.61L203.13 372.19C214.18 387.13 226.4 389.75 239.79 380.02C253.17 370.29 254.77 358.05 244.59 343.28L154.25 213.71C144.19 199.87 132.65 197.86 119.63 207.67Z" id="b3oRzDGT9k"></path><linearGradient id="gradientdwuakI7TO" gradientUnits="userSpaceOnUse" x1="123.37" y1="209.14" x2="239.68" y2="376.39"><stop style="stop-color: #ffe3fe;stop-opacity: 1" offset="0%"></stop><stop style="stop-color: #a88fd9;stop-opacity: 1" offset="100%"></stop></linearGradient><path d="M11.67 358.93C24.31 369.21 36.03 368.78 46.84 357.62L148.32 241.7C159.87 227.72 159.32 215.4 146.66 204.74C134.01 194.08 121.89 195.3 110.3 208.41L8.81 324.33C-1.92 337.11 -0.96 348.64 11.67 358.93Z" id="cDwCGYqD"></path><linearGradient id="gradientc56basz0ps" gradientUnits="userSpaceOnUse" x1="12.15" y1="355" x2="143.22" y2="205.66"><stop style="stop-color: #ffe3fe;stop-opacity: 1" offset="0%"></stop><stop style="stop-color: #a88fd9;stop-opacity: 1" offset="100%"></stop></linearGradient></defs><g><g><g><use xlink:href="#h2y8gTzIh" opacity="1" fill="url(#gradienta19BXB1Gpw)"></use><g><use xlink:href="#h2y8gTzIh" opacity="1" fill-opacity="0" stroke="#ffffff" stroke-width="1" stroke-opacity="0"></use></g></g><g><use xlink:href="#gbyPqX35o" opacity="1" fill="url(#gradientaHzjSRKU3)"></use><g><use xlink:href="#gbyPqX35o" opacity="1" fill-opacity="0" stroke="#ffffff" stroke-width="1" stroke-opacity="0"></use></g></g><g><use xlink:href="#e22Izax5ZK" opacity="1" fill="url(#gradienth1ovVJgYZG)"></use><g><use xlink:href="#e22Izax5ZK" opacity="1" fill-opacity="0" stroke="#ffffff" stroke-width="1" stroke-opacity="0"></use></g></g><g><use xlink:href="#b3oRzDGT9k" opacity="1" fill="url(#gradientdwuakI7TO)"></use><g><use xlink:href="#b3oRzDGT9k" opacity="1" fill-opacity="0" stroke="#ffffff" stroke-width="1" stroke-opacity="0"></use></g></g><g><use xlink:href="#cDwCGYqD" opacity="1" fill="url(#gradientc56basz0ps)"></use><g><use xlink:href="#cDwCGYqD" opacity="1" fill-opacity="0" stroke="#ffffff" stroke-width="1" stroke-opacity="0"></use></g></g></g></g></svg>